<?xml version="1.0" standalone="no"?>
<!DOCTYPE svg PUBLIC "-//W3C//DTD SVG 20010904//EN"
 "http://www.w3.org/TR/2001/REC-SVG-20010904/DTD/svg10.dtd">
<svg version="1.0" xmlns="http://www.w3.org/2000/svg"
 width="980.000000pt" height="980.000000pt" viewBox="0 0 980.000000 980.000000"
 preserveAspectRatio="xMidYMid meet">

<g transform="translate(0.000000,980.000000) scale(0.100000,-0.100000)"
fill="#000000" stroke="none">
<path d="M4560 9789 c-1035 -75 -1998 -463 -2800 -1128 -150 -123 -501 -475
-622 -621 -674 -817 -1059 -1781 -1127 -2825 -78 -1179 288 -2380 1006 -3302
183 -235 434 -504 643 -687 1328 -1166 3158 -1531 4825 -962 895 305 1700 879
2281 1627 735 946 1100 2126 1024 3314 -70 1094 -491 2109 -1216 2935 -112
128 -386 398 -509 501 -763 642 -1665 1026 -2665 1134 -174 19 -664 27 -840
14z m2663 -2851 c184 -65 311 -195 361 -368 15 -50 16 -216 14 -1685 l-3
-1630 -31 -65 c-71 -150 -233 -272 -440 -332 l-79 -23 -2195 0 c-2101 0 -2198
1 -2255 18 -168 52 -302 181 -357 346 l-23 66 -3 1589 c-1 1012 1 1609 7 1642
41 220 287 416 571 454 30 4 1029 7 2220 6 2007 -1 2168 -3 2213 -18z"/>
<path d="M2720 6621 c-65 -21 -102 -42 -152 -90 -52 -48 -51 -76 2 -85 31 -5
69 -30 173 -113 72 -59 587 -476 1142 -927 851 -691 1016 -821 1045 -824 33
-3 88 42 1135 919 605 507 1114 928 1132 935 18 8 42 14 53 14 28 0 27 43 -2
100 -17 33 -35 51 -68 68 l-44 22 -2181 -1 c-2053 0 -2183 -1 -2235 -18z"/>
<path d="M2530 4925 c0 -609 4 -1105 8 -1103 28 11 1360 1025 1358 1033 -2 11
-1318 1148 -1348 1165 -17 10 -18 -45 -18 -1095z"/>
<path d="M6613 5447 c-353 -320 -644 -585 -647 -588 -6 -5 1286 -1039 1298
-1039 3 0 6 497 6 1105 0 608 -3 1105 -7 1104 -5 0 -297 -262 -650 -582z"/>
<path d="M3411 4015 c-660 -497 -811 -606 -843 -612 l-40 -6 4 -73 c4 -78 18
-108 72 -148 l27 -21 2213 0 2212 0 76 38 c42 20 90 53 108 73 26 31 31 42 28
81 -3 44 -4 45 -54 62 -28 9 -73 35 -100 57 -27 23 -368 292 -757 598 -688
541 -709 557 -731 542 -13 -8 -122 -88 -242 -177 -121 -89 -243 -172 -271
-185 -112 -50 -248 -50 -359 0 -28 13 -156 101 -284 196 -128 94 -237 173
-244 176 -6 2 -373 -268 -815 -601z"/>
</g>
</svg>
