<?xml version="1.0" standalone="no"?>
<!DOCTYPE svg PUBLIC "-//W3C//DTD SVG 20010904//EN"
 "http://www.w3.org/TR/2001/REC-SVG-20010904/DTD/svg10.dtd">
<svg version="1.0" xmlns="http://www.w3.org/2000/svg"
 width="512.000000pt" height="512.000000pt" viewBox="0 0 512.000000 512.000000"
 preserveAspectRatio="xMidYMid meet">

<g transform="translate(0.000000,512.000000) scale(0.100000,-0.100000)"
fill="#000000" stroke="none">
<path d="M2321 5110 c-497 -48 -988 -250 -1376 -565 -121 -98 -334 -318 -423
-437 -266 -355 -429 -748 -499 -1198 -24 -161 -24 -539 0 -700 45 -291 116
-520 241 -775 139 -283 286 -484 517 -710 393 -383 866 -615 1429 -702 161
-24 539 -24 700 0 450 70 843 233 1198 499 119 89 339 302 437 423 237 292
430 685 509 1040 49 218 60 325 60 575 0 250 -11 357 -60 575 -79 355 -272
748 -509 1040 -98 121 -318 334 -437 423 -352 264 -750 430 -1188 497 -126 19
-468 27 -599 15z m-610 -1126 c103 -30 207 -117 250 -209 11 -22 44 -132 75
-245 51 -187 55 -212 52 -285 -6 -112 -30 -159 -133 -264 -47 -48 -85 -95 -85
-103 0 -27 60 -188 97 -263 78 -154 212 -329 330 -432 150 -130 344 -242 513
-296 l75 -25 95 92 c82 80 104 96 160 114 102 35 161 30 392 -34 112 -30 222
-64 245 -74 66 -29 166 -136 193 -206 34 -90 37 -158 10 -245 -22 -73 -24 -76
-163 -215 -186 -184 -201 -189 -487 -164 -827 74 -1555 561 -1935 1293 -148
286 -236 588 -265 907 -25 286 -20 301 164 487 133 133 145 142 206 161 79 25
139 27 211 6z"/>
</g>
</svg>
